<?xml version="1.0" encoding="UTF-8"?>
<!DOCTYPE svg PUBLIC "-//W3C//DTD SVG 1.1//EN" "http://www.w3.org/Graphics/SVG/1.1/DTD/svg11.dtd">
<!-- Creator: CorelDRAW 2018 (64-Bit) -->
<svg xmlns="http://www.w3.org/2000/svg" xml:space="preserve" width="67.6349mm" height="67.6346mm" version="1.1" style="shape-rendering:geometricPrecision; text-rendering:geometricPrecision; image-rendering:optimizeQuality; fill-rule:evenodd; clip-rule:evenodd"
viewBox="0 0 6789.02 6788.99"
 xmlns:xlink="http://www.w3.org/1999/xlink">
 <defs>
  <style type="text/css">
   <![CDATA[
    .fil0 {fill:#2B2A29;fill-rule:nonzero}
   ]]>
  </style>
 </defs>
 <g id="Слой_x0020_1">
  <metadata id="CorelCorpID_0Corel-Layer"/>
  <path class="fil0" d="M3394.51 5490.25c-1155.63,0 -2095.79,-940.12 -2095.79,-2095.76 0,-1155.64 940.16,-2095.79 2095.79,-2095.79 1155.61,0 2095.77,940.15 2095.77,2095.79 0,1155.64 -940.15,2095.76 -2095.77,2095.76zm0 -4333.19c-1233.72,0 -2237.43,1003.71 -2237.43,2237.43 0,1233.72 1003.71,2237.4 2237.43,2237.4 1233.7,0 2237.41,-1003.68 2237.41,-2237.4 0,-1233.72 -1003.71,-2237.43 -2237.41,-2237.43z"/>
  <path class="fil0" d="M3394.51 6647.34c-1793.65,0 -3252.87,-1459.22 -3252.87,-3252.85 0,-1793.63 1459.22,-3252.84 3252.87,-3252.84 1793.64,0 3252.86,1459.21 3252.86,3252.84 0,1793.63 -1459.22,3252.85 -3252.86,3252.85zm0 -6647.34c-1871.74,0 -3394.51,1522.75 -3394.51,3394.49 0,1871.72 1522.78,3394.49 3394.51,3394.49 1871.73,0 3394.5,-1522.78 3394.5,-3394.49 0,-1871.75 -1522.78,-3394.49 -3394.5,-3394.49z"/>
  <path class="fil0" d="M3414.36 981.07c100.98,-0.08 193.17,-37.82 251.91,-115.16 3.51,-5.27 5.28,-9.63 5.32,-15.79l-0.11 -131.7 25.47 0c8.77,0 8.74,-24.57 -0.04,-24.57l-207.15 0.07c-7.93,0.1 -7.89,24.64 0,24.61l44.77 -0.07 0.11 216c-36.86,14.98 -77.25,21.99 -120.27,22.02 -60.56,0 -114.12,-13.98 -158.03,-39.45l-0.27 -514.48c43.87,-25.46 97.41,-39.52 157.13,-39.59l0.85 0c69.37,-0.03 187.93,21 187.97,115.8l0 16.71c0.03,8.82 26.34,8.78 26.34,0l-0.07 -143.98c0,-7.86 -26.34,-7.86 -26.34,0.07l0.03 53.47c-42.21,-50.04 -126.47,-66.68 -187.95,-66.64l-0.87 0.03c-189.64,0.07 -316.86,129.22 -316.76,321.5 0.11,192.24 127.51,321.25 317.98,321.15z"/>
  <path class="fil0" d="M5526.87 1860.99l-145.23 -190.62 375.39 -131.58 -230.17 322.2zm331.52 -251.53l-116.58 -152.89c-3.68,-4.86 -23.27,10.05 -19.51,14.94l30.85 40.44 -560.31 197.48 -29.78 -39.13c-3.75,-4.89 -23.27,10.06 -19.54,14.91l81.91 107.51c3.74,4.92 23.3,-9.99 19.57,-14.88l-35.69 -46.78 147.99 -52.06 154.32 202.48 -90.51 127.41 -29.78 -39.06c-3.71,-4.86 -23.27,10.06 -19.54,14.94l136.75 179.36c3.72,5.03 23.3,-9.89 19.54,-14.78l-0.03 -0.1 -21.81 -28.65 352.12 -492.35c4.68,-6.91 4.29,-13.21 0.04,-18.81z"/>
  <path class="fil0" d="M6364.93 3954.14l-7.58 30.74 -549 -135.45 8.85 -35.79c1.7,-6.86 -22.2,-12.76 -23.83,-5.92l-94.23 381.91c-1.67,6.8 1.35,12.99 8.99,14.88l112.5 27.78c5.98,1.46 12.29,-24.13 6.33,-25.63l-100.6 -24.79 49.23 -199.5 548.97 135.49 -10.52 42.59c-1.46,5.92 22.38,11.82 23.87,5.87l50.88 -206.27c1.46,-5.94 -22.41,-11.85 -23.87,-5.9z"/>
  <path class="fil0" d="M4632.56 5850.6c-1.12,-2.41 -3.04,-4.39 -5.77,-6.06l-288.38 -181.75 38.82 -18.5c6.37,-2.99 -4.19,-25.19 -10.52,-22.19l-204.64 97.11c-6.34,3.04 4.18,25.24 10.55,22.19l22.2 -10.51 385.77 243.55 -48.97 222.43 -57.9 27.51c-6.37,2.93 4.18,25.13 10.55,22.09l138 -65.45c6.33,-3.04 -4.22,-25.24 -10.59,-22.23l-50.71 24.18 72.24 -324.89c0.81,-2.37 0.53,-5.09 -0.64,-7.47z"/>
  <path class="fil0" d="M4915.49 6014.62l-33.32 15.86 -242.42 -510.77 39.69 -18.84c5.53,-2.61 -4.99,-24.85 -10.55,-22.16l-200.67 95.23c-6.33,3 4.22,25.19 10.55,22.15l37.26 -17.66 242.42 510.76 -33.29 15.84c-6.37,2.93 4.14,25.12 10.48,22.13l190.37 -90.28c6.34,-3.08 -4.18,-25.29 -10.52,-22.26z"/>
  <path class="fil0" d="M2293.61 5564.13c-6.38,-2.88 -16.41,19.54 -10.03,22.4l48.07 21.61 -231.21 515.86 -40.04 -17.95c-6.39,-2.88 -16.46,19.58 -10.04,22.44l201.86 90.48c8.03,3.56 18.08,-18.88 10.06,-22.45l-36.86 -16.5 231.18 -515.9 43.29 19.4c6.39,2.83 16.42,-19.58 10.03,-22.45l-216.31 -96.94z"/>
  <path class="fil0" d="M1065.79 4180.05l21.85 76.85 -502.32 142.95 419.54 -510.9c8.82,-10.73 -3.07,-36.52 -19.12,-31.94l-554.66 157.78 -16.31 -57.41c-1.94,-6.79 -25.56,-0.06 -23.66,6.71l0 0.04 39.4 138.44c2.17,7.54 25.8,0.86 23.65,-6.72l-15.88 -55.75 348.69 -99.14 -296.4 359.88c-2.08,2.41 -1.94,6.05 -1.2,8.56l51.39 180.64c1.69,5.95 25.31,-0.78 23.65,-6.74l-13.21 -46.42 543.68 -154.67 15.11 53.18c1.7,5.95 25.36,-0.81 23.62,-6.72l-44.2 -155.31c-1.91,-6.77 -25.56,-0.08 -23.62,6.69z"/>
  <path class="fil0" d="M1030.93 1984.25c153.31,115.94 332.99,92.18 447.82,-59.73 60.86,-80.52 86.31,-176.77 60.18,-270.33 -2.11,-5.95 -4.53,-9.99 -9.41,-13.7l-105.05 -79.39 15.35 -20.3c5.3,-6.87 -14.31,-21.67 -19.6,-14.66l0 -0.15 -124.9 165.23c-4.75,6.37 14.87,21.21 19.63,14.91l26.98 -35.79 172.21 130.2c-10.3,38.38 -29.05,74.83 -54.98,109.14 -36.53,48.3 -80,82.58 -126.78,102.19l-410.31 -310.1c6.2,-50.32 27.25,-101.55 63.26,-149.11l0.51 -0.74c41.82,-55.32 130.07,-137.15 205.68,-79.99l13.28 10.02c7.03,5.49 22.9,-15.58 15.91,-20.82l-114.84 -86.91c-6.28,-4.67 -22.17,16.29 -15.87,21.11l42.71 32.15c-65.34,3.43 -129.41,60.63 -166.48,109.63l-0.52 0.71c-114.33,151.2 -88.14,330.56 65.22,446.42z"/>
  <path class="fil0" d="M3850.3 3659.09l124.97 -382.03c217.64,72.76 427.34,186.77 619.69,342.86l48.23 39.17 -792.89 0zm-460.67 952.76l-262.06 -811.12 527.4 0 -265.35 811.12zm-1246.74 -952.76l32.37 -26.8c196.18,-162.3 411,-280.45 634.3,-355.16l123.4 381.96 -790.08 0zm1696.4 -421.93l-138.03 421.93 -619.43 0 -136.25 -421.72c294.22,-74.11 599.37,-74.32 893.71,-0.21zm-1165.51 -841.11c442.77,267.71 997.49,267.89 1440.48,0.6l-230.56 704.78c-323.24,-83.35 -658.92,-83.07 -981.96,0.18l-227.96 -705.56zm1345.69 745.93l373.83 -1142.93 -190.26 160.27c-468.49,394.54 -1148.57,394.54 -1617.07,0l-188.95 -159.18 368.85 1141.65c-239.72,80.24 -470.31,207.11 -680.86,381.33l-335.5 277.59 1229.23 0 410.07 1269.23 415.18 -1269.23 1238.47 0 -358.22 -290.76c-206.35,-167.49 -431.27,-289.84 -664.77,-367.98z"/>
 </g>
</svg>
